<?xml version="1.0" encoding="UTF-8" standalone="no"?>
<!-- Created with Inkscape (http://www.inkscape.org/) -->

<svg
   xmlns:dc="http://purl.org/dc/elements/1.1/"
   xmlns:cc="http://creativecommons.org/ns#"
   xmlns:rdf="http://www.w3.org/1999/02/22-rdf-syntax-ns#"
   xmlns:svg="http://www.w3.org/2000/svg"
   xmlns="http://www.w3.org/2000/svg"
   xmlns:sodipodi="http://sodipodi.sourceforge.net/DTD/sodipodi-0.dtd"
   xmlns:inkscape="http://www.inkscape.org/namespaces/inkscape"
   width="256px"
   height="256px"
   viewBox="0 0 256 256"
   version="1.1"
   id="SVGRoot"
   inkscape:version="0.92.0 r15299"
   sodipodi:docname="automatic_assignment.svg"
   inkscape:export-filename="D:\Dev\SoluiNet.DevTools\icons\automatic_assignment.png"
   inkscape:export-xdpi="828"
   inkscape:export-ydpi="828">
  <sodipodi:namedview
     id="base"
     pagecolor="#ffffff"
     bordercolor="#666666"
     borderopacity="1.0"
     inkscape:pageopacity="0.0"
     inkscape:pageshadow="2"
     inkscape:zoom="1"
     inkscape:cx="-181"
     inkscape:cy="128"
     inkscape:document-units="px"
     inkscape:current-layer="layer1"
     showgrid="false"
     inkscape:window-width="2560"
     inkscape:window-height="1346"
     inkscape:window-x="3829"
     inkscape:window-y="-11"
     inkscape:window-maximized="1"
     inkscape:grid-bbox="true" />
  <defs
     id="defs3680" />
  <metadata
     id="metadata3683">
    <rdf:RDF>
      <cc:Work
         rdf:about="">
        <dc:format>image/svg+xml</dc:format>
        <dc:type
           rdf:resource="http://purl.org/dc/dcmitype/StillImage" />
        <dc:title />
      </cc:Work>
    </rdf:RDF>
  </metadata>
  <g
     id="layer1"
     inkscape:groupmode="layer"
     inkscape:label="Ebene 1">
    <path
       style="fill:none;stroke:#000000;stroke-width:1.78287852;stroke-linejoin:round;stroke-miterlimit:4;stroke-dasharray:none;stroke-opacity:1"
       d="m 68.16211,69.740234 a 61.137703,61.137703 0 0 0 -15.611329,2.615235 l -0.513672,11.765625 -8.222656,-8.367188 a 61.137703,61.137703 0 0 0 -13.287109,8.705078 l 4.27539,10.855469 -10.902343,-4.292969 A 61.137703,61.137703 0 0 0 15.259766,104.3457 l 8.349609,8.20508 -11.808594,0.51563 A 61.137703,61.137703 0 0 0 9.259766,128.6875 l 11.132812,4.16211 -10.714844,5.3418 a 61.137703,61.137703 0 0 0 3.84961,15.2539 l 12.185547,-0.74414 -7.816407,9.48047 a 61.137703,61.137703 0 0 0 9.660157,12.26367 l 11.089843,-5.77343 -3.384765,12.20507 a 61.137703,61.137703 0 0 0 13.722656,7.15235 l 7.974609,-10.02539 1.917969,12.83007 a 61.137703,61.137703 0 0 0 11.414067,1.10743 61.137703,61.137703 0 0 0 3.90039,-0.13868 l 3.29101,-12.72461 7.07422,11.10352 a 61.137703,61.137703 0 0 0 14.30274,-5.37305 l -2.19141,-13.0957 11.10742,7.35156 a 61.137703,61.137703 0 0 0 10.75,-10.81445 l -7.32422,-11.06836 13.10156,2.19336 a 61.137703,61.137703 0 0 0 5.36719,-14.30664 l -11.10351,-7.07422 12.66601,-3.27539 a 61.137703,61.137703 0 0 0 0.19727,-3.91602 61.137703,61.137703 0 0 0 -1.1211,-11.41601 l -12.81836,-1.91602 10.05665,-7.99804 a 61.137703,61.137703 0 0 0 -7.22852,-13.685551 l -12.1582,3.371094 5.79492,-11.130859 a 61.137703,61.137703 0 0 0 -12.29102,-9.613282 l -9.47461,7.810547 0.74414,-12.158203 A 61.137703,61.137703 0 0 0 77.69141,70.166016 L 72.33789,80.90625 Z"
       id="path6807"
       inkscape:connector-curvature="0" />
    <circle
       style="fill:none;stroke:#000000;stroke-width:0.68067867;stroke-linejoin:round;stroke-miterlimit:4;stroke-dasharray:none;stroke-opacity:1"
       id="path6809-1"
       cx="70.291061"
       cy="130.80331"
       r="29.50264" />
    <path
       style="fill:#000000;stroke:#000000;stroke-width:1;stroke-linejoin:round;stroke-miterlimit:4;stroke-dasharray:none;stroke-opacity:1"
       d="m 60.151253,189.68293 c -0.311729,-0.50439 -0.84915,-3.09189 -1.194268,-5.75 -1.110796,-8.55538 -1.755725,-8.38932 -10.045896,2.58665 -0.471346,0.62405 -10.212093,-4.09537 -11.395311,-5.52106 -0.705405,-0.84996 -0.512571,-2.97769 0.624285,-6.88834 0.904732,-3.11216 1.431936,-5.87151 1.171565,-6.13189 -0.260371,-0.26037 -3.045851,0.7855 -6.189956,2.32416 l -5.716554,2.79755 -3.394039,-4 c -4.969376,-5.85659 -5.059074,-6.92504 -0.981317,-11.68898 1.963631,-2.29406 3.570238,-4.58309 3.570238,-5.08674 0,-0.50365 -2.80438,-0.76016 -6.231954,-0.57001 L 14.136091,152.1 13.010458,148.6 c -2.909564,-9.04689 -2.822843,-9.38111 3.200693,-12.33533 3.019354,-1.48083 5.243801,-3.09035 4.943216,-3.5767 -0.300585,-0.48636 -2.851112,-1.71301 -5.667839,-2.72589 l -5.121321,-1.8416 0.584576,-5.59292 C 11.868251,113.74013 11.990014,113.6 18.706989,113.6 21.948145,113.6 24.6,113.27953 24.6,112.88785 c 0,-0.39168 -1.87581,-2.62346 -4.168466,-4.9595 l -4.168467,-4.24736 3.678681,-5.540496 C 21.965023,95.093222 24.028525,92.6 24.527309,92.6 c 0.498784,0 3.032878,0.911309 5.631321,2.025132 2.598442,1.113822 4.951674,1.797897 5.229405,1.520166 0.277731,-0.27773 -0.433278,-2.956744 -1.580019,-5.953363 l -2.084983,-5.448399 3.34258,-2.54951 c 1.83842,-1.402231 4.524071,-3.087834 5.968114,-3.745784 2.414762,-1.100239 2.947545,-0.881836 6.636785,2.720611 4.701195,4.590594 5.889265,3.844066 5.914175,-3.716198 L 53.6,72.80531 60.217018,71.653006 c 3.639362,-0.633767 6.753222,-1.0161 6.919692,-0.849628 0.16647,0.166472 1.17799,2.531037 2.24781,5.25459 1.06982,2.723553 2.37423,5.094949 2.89869,5.269769 0.52446,0.174819 2.01221,-1.942404 3.30611,-4.704942 2.61346,-5.579841 3.16718,-5.759423 10.78407,-3.497451 l 5.13639,1.525343 0.29511,6.495442 0.29511,6.495442 4.84849,-4.012193 4.84848,-4.012194 4.44668,3.193359 c 6.74293,4.842405 6.79624,4.987868 3.91323,10.677212 -1.40628,2.775166 -2.55688,5.489193 -2.55688,6.03117 0,0.583225 1.93866,0.397142 4.75,-0.455932 7.41115,-2.248847 7.92653,-2.046742 11.1711,4.380707 l 2.94989,5.84371 -4.93549,3.76386 c -2.71453,2.07012 -4.9355,4.12616 -4.9355,4.56898 0,0.44283 2.78485,1.18192 6.18856,1.64244 5.93302,0.80274 6.22431,0.97563 7.05442,4.18699 0.47623,1.84233 0.72887,4.9668 0.56144,6.94327 -0.29286,3.45708 -0.51333,3.64588 -5.80442,4.97056 -3.025,0.75733 -5.88396,1.75182 -6.35323,2.20997 -0.46928,0.45814 1.64303,2.42983 4.69402,4.38153 6.10156,3.90311 6.10964,3.94593 2.4044,12.74184 l -1.51516,3.59685 -6.13975,-0.98877 c -3.37687,-0.54383 -6.42184,-0.7067 -6.76661,-0.36193 -0.34477,0.34476 0.98077,3.0481 2.94565,6.00742 l 3.5725,5.38057 -4.87796,4.8046 -4.87795,4.80461 -5.63698,-3.74274 c -3.10034,-2.05851 -5.85062,-3.52911 -6.11173,-3.26799 -0.26112,0.26111 0.006,3.07645 0.59402,6.2563 0.58783,3.17985 1.06878,6.09349 1.06878,6.47475 0,0.86498 -9.34687,4.93948 -11.33114,4.93948 -0.8032,0 -2.90419,-2.25 -4.66886,-5 -1.76467,-2.75 -3.58126,-5 -4.03686,-5 -0.85975,0 -1.11039,0.66022 -2.94216,7.75 l -1.09807,4.25 h -6.40244 c -3.52134,0 -6.657487,-0.41268 -6.969217,-0.91707 z M 77.33875,159.97265 c 1.23132,-0.33001 1.96246,-1.04708 1.62477,-1.59347 -0.3707,-0.59981 0.17196,-0.744 1.36954,-0.3639 5.00948,1.58994 19.3011,-13.58158 17.66116,-18.74855 -0.43808,-1.38027 -0.25471,-1.69855 0.65474,-1.13647 0.96124,0.59408 1.10999,0.0145 0.6222,-2.42448 -0.45254,-2.2627 -0.30764,-2.99915 0.49276,-2.50447 1.71397,1.05929 0.12039,-9.15676 -2.27762,-14.60131 -2.66188,-6.04365 -9.09163,-12.41186 -15.17343,-15.02818 -5.75295,-2.47485 -16.44842,-3.970974 -15.31855,-2.14282 0.50011,0.8092 -0.22673,0.95452 -2.5001,0.49984 -2.27898,-0.45579 -3.000774,-0.31027 -2.497773,0.50361 0.448823,0.72621 0.173103,0.9396 -0.754252,0.58374 C 59.846553,102.48063 53.6,105.0705 53.6,106.1847 c 0,0.29333 0.519529,0.21225 1.154508,-0.18019 0.699101,-0.43207 0.883698,-0.27535 0.467975,0.39731 -0.377593,0.61096 -1.280635,0.88285 -2.006759,0.60421 -2.726284,-1.04617 -12.42978,13.03019 -11.196963,16.24286 0.31216,0.81348 0.122476,1.18561 -0.430215,0.84403 C 40.972516,123.71219 40.6,126.16427 40.6,130.6 c 0,4.00265 0.396858,6.87276 0.906741,6.55764 0.498708,-0.30822 0.652822,0.41059 0.342477,1.59735 -0.361576,1.38267 -0.181971,1.92148 0.5,1.5 0.655103,-0.40487 0.88032,0.0456 0.585809,1.17187 -1.040376,3.9784 12.859712,17.87849 16.838116,16.83811 1.126212,-0.29451 1.576741,-0.0693 1.171865,0.58581 -0.421481,0.68197 0.117332,0.86158 1.500002,0.5 1.18676,-0.31034 1.90557,-0.15623 1.59735,0.34248 -0.62257,1.00734 9.76593,1.22564 13.29639,0.27939 z M 49.546167,150.85 46.1,147.1 l 3.75,3.44617 c 2.0625,1.89539 3.75,3.58289 3.75,3.75 0,0.76362 -0.846216,0.0443 -4.053833,-3.44617 z M 49.1,110.6 c 0.995486,-1.1 2.034975,-2 2.309975,-2 0.275,0 -0.314489,0.9 -1.309975,2 -0.995486,1.1 -2.034975,2 -2.309975,2 -0.275,0 0.314489,-0.9 1.309975,-2 z"
       id="path6849"
       inkscape:connector-curvature="0" />
    <path
       sodipodi:type="star"
       style="fill:#000000;stroke:#000000;stroke-width:1;stroke-linejoin:round;stroke-miterlimit:4;stroke-dasharray:none;stroke-opacity:1"
       id="path6853"
       sodipodi:sides="3"
       sodipodi:cx="198"
       sodipodi:cy="57"
       sodipodi:r1="46.010868"
       sodipodi:r2="23.005434"
       sodipodi:arg1="0"
       sodipodi:arg2="1.0471976"
       inkscape:flatsided="false"
       inkscape:rounded="0"
       inkscape:randomized="0"
       d="m 244.01087,57 -34.50815,19.923291 -34.50815,19.92329 0,-39.846582 0,-39.84658 34.50815,19.923291 z"
       inkscape:transform-center-x="-11.502717" />
    <rect
       style="fill:#000000;stroke:#000000;stroke-width:1;stroke-linejoin:round;stroke-miterlimit:4;stroke-dasharray:none;stroke-opacity:1"
       id="rect6873"
       width="50"
       height="39"
       x="130"
       y="37" />
    <path
       sodipodi:type="star"
       style="fill:#000000;stroke:#000000;stroke-width:1;stroke-linejoin:round;stroke-miterlimit:4;stroke-dasharray:none;stroke-opacity:1"
       id="path6853-5"
       sodipodi:sides="3"
       sodipodi:cx="-172.00542"
       sodipodi:cy="-190"
       sodipodi:r1="46.010868"
       sodipodi:r2="23.005434"
       sodipodi:arg1="0"
       sodipodi:arg2="1.0471976"
       inkscape:flatsided="false"
       inkscape:rounded="0"
       inkscape:randomized="0"
       d="m -125.99455,-190 -34.50815,19.92329 -34.50815,19.92329 0,-39.84658 0,-39.84658 34.50815,19.92329 z"
       inkscape:transform-center-x="11.502717"
       transform="scale(-1)" />
    <rect
       style="fill:#000000;stroke:#000000;stroke-width:1;stroke-linejoin:round;stroke-miterlimit:4;stroke-dasharray:none;stroke-opacity:1"
       id="rect6873-4"
       width="50"
       height="39"
       x="-240.0054"
       y="-210"
       transform="scale(-1)" />
  </g>
</svg>
