<svg xmlns="http://www.w3.org/2000/svg" xmlns:svg="http://www.w3.org/2000/svg" id="Layer_1" width="253.705" height="253.704" x="0" y="0" version="1.1" viewBox="0 0 253.705 253.704" xml:space="preserve"><metadata id="metadata277"/><style id="style2" type="text/css">.st2{fill:url(#SVGID_1_)}.st3{fill:url(#SVGID_2_)}.st4{fill:url(#SVGID_3_)}.st5{fill:url(#SVGID_4_)}.st6{fill:url(#SVGID_5_)}.st7{fill:url(#SVGID_6_)}.st8{fill:url(#SVGID_7_)}.st9{fill:url(#SVGID_8_)}.st10{fill:url(#SVGID_9_)}.st11{fill:url(#SVGID_10_)}.st12{fill:url(#SVGID_11_)}.st13{fill:url(#SVGID_12_)}.st14{fill:url(#SVGID_13_)}.st15{fill:url(#SVGID_14_)}.st16{fill:url(#SVGID_15_)}.st17{fill:url(#SVGID_16_)}.st18{fill:url(#SVGID_17_)}.st19{fill:url(#SVGID_18_)}.st20{fill:url(#SVGID_19_)}.st21{fill:url(#SVGID_20_)}.st22{fill:url(#SVGID_21_)}.st23{fill:url(#SVGID_22_)}.st24{fill:url(#SVGID_23_)}.st25{fill:url(#SVGID_24_)}.st26{fill:url(#SVGID_25_)}.st27{fill:url(#SVGID_26_)}.st28{fill:url(#SVGID_27_)}.st29{fill:url(#SVGID_28_)}</style><g id="g270" transform="translate(-445.40842,-896.17279)"><g id="g82"><linearGradient id="SVGID_1_" x1="512.436" x2="696.476" y1="847.847" y2="1092.076" gradientUnits="userSpaceOnUse"><stop style="stop-color:#43e97b" id="stop26" offset="0"/><stop style="stop-color:#38f9d7" id="stop28" offset="1"/></linearGradient><path id="path31" d="m 588.13,946.02 c -5.12,-1.06 -10.43,-1.61 -15.87,-1.61 -5.54,0 -10.95,0.57 -16.17,1.67 -0.04,-0.07 -0.09,-0.14 -0.13,-0.21 -2.14,-3.46 -3.06,-7.56 -3.19,-11.75 -0.13,-4.29 0.58,-8.66 1.67,-12.51 2.24,-7.94 6.71,-15.17 12.45,-21.05 1.34,-1.37 2.73,-2.67 4.19,-3.91 1.38,-1.16 3.48,-0.06 3.3,1.74 -0.71,7.4 1.87,16.16 1.87,16.16 1.88,-5.42 6.56,-7.92 9.21,-8.94 0.77,-0.29 1.51,0.43 1.26,1.21 -3.73,11.79 3.97,18.04 4.9,27.08 0.45,4.34 -0.86,8.59 -3.49,12.12 z" class="st2" style="fill:url(#SVGID_1_)"/><linearGradient id="SVGID_2_" x1="545.696" x2="727.691" y1="821.945" y2="1063.46" gradientUnits="userSpaceOnUse"><stop style="stop-color:#43e97b" id="stop33" offset="0"/><stop style="stop-color:#38f9d7" id="stop35" offset="1"/></linearGradient><path id="path38" d="m 664.66,951.08 c -10.98,5.69 -9.95,15.56 -15.68,22.61 -2.76,3.39 -6.7,5.47 -11.06,6.1 -5.92,-9 -13.66,-16.7 -22.68,-22.59 0.01,-0.09 0.03,-0.17 0.05,-0.26 0.93,-3.96 3.18,-7.51 6.06,-10.56 2.94,-3.12 6.53,-5.72 10.02,-7.67 7.2,-4.03 15.47,-5.98 23.69,-6.08 1.91,-0.02 3.82,0.04 5.73,0.2 1.8,0.15 2.5,2.42 1.1,3.57 -5.74,4.72 -10.1,12.74 -10.1,12.74 5.16,-2.5 10.24,-0.96 12.83,0.19 0.75,0.34 0.77,1.37 0.04,1.75 z" class="st3" style="fill:url(#SVGID_2_)"/><linearGradient id="SVGID_3_" x1="531.958" x2="708.431" y1="841.931" y2="1076.118" gradientUnits="userSpaceOnUse"><stop style="stop-color:#43e97b" id="stop40" offset="0"/><stop style="stop-color:#38f9d7" id="stop42" offset="1"/></linearGradient><path id="path45" d="m 696.9,1025.15 c -7.4,-0.72 -16.16,1.87 -16.16,1.87 5.42,1.88 7.92,6.56 8.94,9.21 0.29,0.76 -0.43,1.5 -1.21,1.26 -11.79,-3.74 -18.04,3.96 -27.08,4.89 -4.33,0.45 -8.58,-0.86 -12.11,-3.48 1.05,-5.13 1.6,-10.44 1.6,-15.87 0,-5.54 -0.57,-10.96 -1.67,-16.18 0.07,-0.04 0.14,-0.09 0.21,-0.13 3.46,-2.14 7.56,-3.06 11.75,-3.19 4.29,-0.12 8.66,0.58 12.51,1.67 7.94,2.24 15.17,6.71 21.05,12.46 1.37,1.33 2.67,2.73 3.9,4.18 1.17,1.38 0.07,3.48 -1.73,3.31 z" class="st4" style="fill:url(#SVGID_3_)"/><linearGradient id="SVGID_4_" x1="501.013" x2="660.49" y1="907.743" y2="1119.377" gradientUnits="userSpaceOnUse"><stop style="stop-color:#43e97b" id="stop47" offset="0"/><stop style="stop-color:#38f9d7" id="stop49" offset="1"/></linearGradient><path id="path52" d="m 662.66,1105.83 c 0.02,1.91 -0.04,3.82 -0.2,5.72 -0.15,1.8 -2.42,2.5 -3.57,1.11 -4.72,-5.74 -12.74,-10.1 -12.74,-10.1 2.5,5.15 0.96,10.23 -0.2,12.82 -0.33,0.75 -1.37,0.77 -1.74,0.04 -5.7,-10.97 -15.56,-9.95 -22.61,-15.68 -3.39,-2.76 -5.47,-6.69 -6.11,-11.05 9,-5.92 16.71,-13.66 22.61,-22.68 0.08,0.01 0.17,0.03 0.25,0.05 3.96,0.93 7.51,3.18 10.56,6.05 3.12,2.94 5.72,6.53 7.67,10.02 4.03,7.2 5.98,15.48 6.08,23.7 z" class="st5" style="fill:url(#SVGID_4_)"/><linearGradient id="SVGID_5_" x1="425.434" x2="609.444" y1="923.966" y2="1168.155" gradientUnits="userSpaceOnUse"><stop style="stop-color:#43e97b" id="stop54" offset="0"/><stop style="stop-color:#38f9d7" id="stop56" offset="1"/></linearGradient><path id="path59" d="m 590.09,1124.44 c -2.25,7.94 -6.71,15.17 -12.46,21.06 -1.33,1.36 -2.73,2.67 -4.19,3.9 -1.38,1.16 -3.47,0.06 -3.3,-1.74 0.72,-7.4 -1.87,-16.15 -1.87,-16.15 -1.88,5.41 -6.56,7.91 -9.21,8.93 -0.76,0.29 -1.51,-0.43 -1.26,-1.21 3.74,-11.78 -3.96,-18.04 -4.9,-27.07 -0.45,-4.34 0.86,-8.59 3.49,-12.12 5.12,1.06 10.43,1.61 15.87,1.61 5.55,0 10.96,-0.57 16.18,-1.67 0.05,0.07 0.09,0.13 0.13,0.2 2.14,3.46 3.06,7.56 3.18,11.75 0.13,4.29 -0.57,8.66 -1.66,12.51 z" class="st6" style="fill:url(#SVGID_5_)"/><linearGradient id="SVGID_6_" x1="394.429" x2="576.455" y1="952.862" y2="1194.42" gradientUnits="userSpaceOnUse"><stop style="stop-color:#43e97b" id="stop61" offset="0"/><stop style="stop-color:#38f9d7" id="stop63" offset="1"/></linearGradient><path id="path66" d="m 529.28,1088.86 c -0.01,0.08 -0.03,0.17 -0.05,0.25 -0.93,3.96 -3.18,7.52 -6.05,10.57 -2.94,3.12 -6.53,5.71 -10.02,7.66 -7.2,4.03 -15.48,5.98 -23.7,6.08 -1.91,0.02 -3.82,-0.04 -5.72,-0.2 -1.8,-0.15 -2.5,-2.42 -1.11,-3.56 5.74,-4.73 10.1,-12.75 10.1,-12.75 -5.16,2.5 -10.23,0.96 -12.83,-0.19 -0.74,-0.34 -0.76,-1.37 -0.04,-1.75 10.98,-5.69 9.96,-15.56 15.69,-22.61 2.74,-3.38 6.68,-5.46 11.04,-6.09 5.93,9 13.67,16.7 22.69,22.59 z" class="st7" style="fill:url(#SVGID_6_)"/><linearGradient id="SVGID_7_" x1="414.381" x2="590.85" y1="941.129" y2="1175.312" gradientUnits="userSpaceOnUse"><stop style="stop-color:#43e97b" id="stop68" offset="0"/><stop style="stop-color:#38f9d7" id="stop70" offset="1"/></linearGradient><path id="path73" d="m 495.31,1039.2 c -0.07,0.04 -0.14,0.09 -0.21,0.13 -3.45,2.14 -7.56,3.06 -11.74,3.19 -4.29,0.13 -8.66,-0.58 -12.51,-1.67 -7.94,-2.24 -15.17,-6.71 -21.06,-12.45 -1.36,-1.34 -2.67,-2.73 -3.9,-4.19 -1.17,-1.38 -0.06,-3.48 1.74,-3.31 7.39,0.72 16.15,-1.87 16.15,-1.87 -5.41,-1.88 -7.92,-6.55 -8.93,-9.2 -0.3,-0.77 0.42,-1.51 1.2,-1.27 11.79,3.74 18.04,-3.96 27.08,-4.89 4.33,-0.45 8.58,0.86 12.11,3.49 -1.05,5.13 -1.6,10.44 -1.6,15.87 0,5.54 0.57,10.95 1.67,16.17 z" class="st8" style="fill:url(#SVGID_7_)"/><linearGradient id="SVGID_8_" x1="464.418" x2="623.906" y1="900.639" y2="1112.287" gradientUnits="userSpaceOnUse"><stop style="stop-color:#43e97b" id="stop75" offset="0"/><stop style="stop-color:#38f9d7" id="stop77" offset="1"/></linearGradient><path id="path80" d="m 529.03,957.37 c -9,5.92 -16.71,13.66 -22.61,22.68 -0.08,-0.01 -0.17,-0.03 -0.25,-0.05 -3.95,-0.93 -7.51,-3.19 -10.56,-6.06 -3.12,-2.94 -5.71,-6.53 -7.66,-10.02 -4.03,-7.2 -5.99,-15.47 -6.08,-23.7 -0.03,-1.9 0.04,-3.82 0.2,-5.72 0.15,-1.8 2.41,-2.5 3.56,-1.1 4.72,5.73 12.75,10.1 12.75,10.1 -2.5,-5.16 -0.96,-10.24 0.19,-12.83 0.33,-0.75 1.37,-0.77 1.75,-0.04 5.69,10.97 15.55,9.95 22.61,15.68 3.39,2.76 5.47,6.7 6.1,11.06 z" class="st9" style="fill:url(#SVGID_8_)"/></g><g id="g268"><g id="g102"><g id="g91"><linearGradient id="SVGID_9_" x1="452.28" x2="631.018" y1="907.883" y2="1145.076" gradientUnits="userSpaceOnUse"><stop style="stop-color:#43e97b" id="stop84" offset="0"/><stop style="stop-color:#38f9d7" id="stop86" offset="1"/></linearGradient><path id="path89" d="m 581.5,1078.16 -8.13,-3.78 c 0.12,-0.26 0.24,-0.52 0.36,-0.77 0.29,-0.64 0.58,-1.28 0.86,-1.92 l 8.22,3.59 c -0.3,0.69 -0.61,1.37 -0.93,2.07 -0.13,0.27 -0.26,0.54 -0.38,0.81 z" class="st10" style="fill:url(#SVGID_9_)"/></g><g id="g100"><linearGradient id="SVGID_10_" x1="467.561" x2="655.649" y1="881.758" y2="1131.359" gradientUnits="userSpaceOnUse"><stop style="stop-color:#43e97b" id="stop93" offset="0"/><stop style="stop-color:#38f9d7" id="stop95" offset="1"/></linearGradient><path id="path98" d="m 571.23,980.35 c -1.43,-1.72 -2.94,-3.4 -4.47,-5 l -6.43,6.19 -0.03,0.03 c 1.39,1.45 2.75,2.98 4.06,4.54 l 6.89,-5.74 c -0.01,-0.01 -0.01,-0.01 -0.02,-0.02 z m 7.85,10.92 c -1.16,-1.88 -2.41,-3.76 -3.71,-5.57 l -7.25,5.2 -0.04,0.03 c 1.19,1.65 2.32,3.35 3.37,5.06 l 7.65,-4.69 c -0.01,-0.01 -0.01,-0.02 -0.02,-0.03 z m 10.38,24.86 c -0.52,-2.17 -1.13,-4.35 -1.83,-6.48 l -8.5,2.78 -0.02,0.01 c 0.62,1.91 1.18,3.86 1.64,5.81 l 8.72,-2.09 c 0,-0.01 0,-0.02 -0.01,-0.03 z m 1.4,7.29 c -0.01,-0.04 -0.01,-0.08 -0.01,-0.11 -0.03,-0.16 -0.05,-0.34 -0.08,-0.5 l -8.84,1.36 h -0.02 c 0.3,1.97 0.52,3.99 0.66,6 l 8.95,-0.62 c -0.15,-2.04 -0.37,-4.11 -0.66,-6.13 z m -8.11,12.79 c -0.03,1.99 -0.13,4.03 -0.31,6.05 l 8.93,0.8 c 0.21,-2.26 0.32,-4.52 0.35,-6.75 z m -1.07,12.08 c -0.33,1.97 -0.73,3.98 -1.2,5.97 l 8.72,2.07 c 0.52,-2.19 0.97,-4.41 1.33,-6.59 z m -2.81,11.87 c -0.59,1.93 -1.25,3.88 -1.97,5.82 l 8.4,3.13 c 0.79,-2.1 1.51,-4.22 2.15,-6.32 z" class="st11" style="fill:url(#SVGID_10_)"/></g></g><g id="g257"><g id="g111"><linearGradient id="SVGID_11_" x1="472.245" x2="649.109" y1="890.298" y2="1125.004" gradientUnits="userSpaceOnUse"><stop style="stop-color:#43e97b" id="stop104" offset="0"/><stop style="stop-color:#38f9d7" id="stop106" offset="1"/></linearGradient><path id="path109" d="m 629.05,1023.03 c 0,6.89 -1.24,13.5 -3.49,19.62 -0.96,-0.84 -2.19,-1.3 -3.48,-1.3 -0.49,0 -0.99,0.07 -1.48,0.21 -0.08,0.02 -0.16,0.04 -0.24,0.07 -0.21,-0.37 -0.4,-0.7 -0.58,-0.99 2.04,-5.49 3.16,-11.42 3.16,-17.61 0,-6.46 -1.22,-12.64 -3.43,-18.32 -0.87,-0.13 -2.61,-0.38 -5,-0.57 l 0.66,-8.03 c -8.98,-14.26 -24.85,-23.75 -42.9,-23.75 -4.69,0 -9.23,0.64 -13.55,1.84 l -2.77,3.11 c -0.64,-0.57 -1.26,-1.1 -1.85,-1.59 -18.99,7.32 -32.5,25.76 -32.5,47.3 0,7.94 1.84,15.46 5.11,22.15 l 7.87,3.29 c -0.73,1.76 -1.62,4.1 -2.26,5.95 l -0.33,-0.68 c 9.24,12.09 23.79,19.92 40.14,19.96 0.35,1.2 0.77,2.43 1.27,3.71 0.32,0.81 0.67,1.6 1.04,2.36 -0.73,0.02 -1.45,0.04 -2.18,0.04 -31.31,0 -56.78,-25.48 -56.78,-56.78 0,-31.3 25.48,-56.78 56.78,-56.78 31.3,0 56.79,25.48 56.79,56.79 z" class="st12" style="fill:url(#SVGID_11_)"/></g><g id="g120"><linearGradient id="SVGID_12_" x1="493.452" x2="658.909" y1="884.662" y2="1104.231" gradientUnits="userSpaceOnUse"><stop style="stop-color:#43e97b" id="stop113" offset="0"/><stop style="stop-color:#38f9d7" id="stop115" offset="1"/></linearGradient><path id="path118" d="m 579.12,991.25 -7.64,4.69 c -1.05,-1.71 -2.19,-3.42 -3.37,-5.07 l 7.29,-5.23 c 1.3,1.83 2.55,3.72 3.72,5.61 z" class="st13" style="fill:url(#SVGID_12_)"/></g><g id="g129"><linearGradient id="SVGID_13_" x1="481.73" x2="656.134" y1="887.156" y2="1118.598" gradientUnits="userSpaceOnUse"><stop style="stop-color:#43e97b" id="stop122" offset="0"/><stop style="stop-color:#38f9d7" id="stop124" offset="1"/></linearGradient><path id="path127" d="m 591.41,1028.81 -8.83,1.31 c -0.14,-2.01 -0.36,-4.02 -0.66,-6 l 8.87,-1.35 c 0.08,0.5 0.27,3.67 0.62,6.04 z" class="st14" style="fill:url(#SVGID_13_)"/></g><g id="g138"><linearGradient id="SVGID_14_" x1="486.776" x2="659.25" y1="884.604" y2="1113.485" gradientUnits="userSpaceOnUse"><stop style="stop-color:#43e97b" id="stop131" offset="0"/><stop style="stop-color:#38f9d7" id="stop133" offset="1"/></linearGradient><path id="path136" d="m 589.49,1016.12 -8.72,2.08 c -0.46,-1.95 -1.02,-3.9 -1.64,-5.81 l 8.52,-2.8 c 0.7,2.15 1.32,4.34 1.84,6.53 z" class="st15" style="fill:url(#SVGID_14_)"/></g><g id="g147"><linearGradient id="SVGID_15_" x1="481.062" x2="672.617" y1="868.483" y2="1122.686" gradientUnits="userSpaceOnUse"><stop style="stop-color:#43e97b" id="stop140" offset="0"/><stop style="stop-color:#38f9d7" id="stop142" offset="1"/></linearGradient><path id="path145" d="m 571.27,980.32 -6.89,5.74 c -1.3,-1.56 -2.67,-3.09 -4.06,-4.54 l 6.47,-6.22 c 1.53,1.61 3.04,3.29 4.48,5.02 z" class="st16" style="fill:url(#SVGID_15_)"/></g><g id="g156"><linearGradient id="SVGID_16_" x1="494.375" x2="674.435" y1="868.404" y2="1107.351" gradientUnits="userSpaceOnUse"><stop style="stop-color:#43e97b" id="stop149" offset="0"/><stop style="stop-color:#38f9d7" id="stop151" offset="1"/></linearGradient><path id="path154" d="m 596.96,1004.24 c -1.95,0.18 -3.9,0.42 -5.8,0.72 l -1.38,-8.86 c 2.08,-0.32 4.22,-0.59 6.34,-0.79 z" class="st17" style="fill:url(#SVGID_16_)"/></g><g id="g165"><linearGradient id="SVGID_17_" x1="439.411" x2="623.01" y1="912.648" y2="1156.292" gradientUnits="userSpaceOnUse"><stop style="stop-color:#43e97b" id="stop158" offset="0"/><stop style="stop-color:#38f9d7" id="stop160" offset="1"/></linearGradient><path id="path163" d="m 539.76,1038.13 c -0.97,1.62 -1.9,3.33 -2.77,5.06 l -8.02,-4.02 c 0.97,-1.94 2.01,-3.84 3.09,-5.65 z" class="st18" style="fill:url(#SVGID_17_)"/></g><g id="g174"><linearGradient id="SVGID_18_" x1="446.807" x2="632.858" y1="903.446" y2="1150.343" gradientUnits="userSpaceOnUse"><stop style="stop-color:#43e97b" id="stop167" offset="0"/><stop style="stop-color:#38f9d7" id="stop169" offset="1"/></linearGradient><path id="path172" d="m 546.42,1028.79 c -1.22,1.44 -2.4,2.96 -3.51,4.53 l -7.31,-5.2 c 1.26,-1.77 2.59,-3.49 3.97,-5.12 z" class="st19" style="fill:url(#SVGID_18_)"/></g><g id="g183"><linearGradient id="SVGID_19_" x1="479.418" x2="655.576" y1="885.935" y2="1119.705" gradientUnits="userSpaceOnUse"><stop style="stop-color:#43e97b" id="stop176" offset="0"/><stop style="stop-color:#38f9d7" id="stop178" offset="1"/></linearGradient><path id="path181" d="m 574.32,1009.32 c -1.81,0.68 -3.6,1.44 -5.31,2.24 l -3.81,-8.12 c 1.92,-0.91 3.93,-1.75 5.95,-2.52 z" class="st20" style="fill:url(#SVGID_19_)"/></g><g id="g192"><linearGradient id="SVGID_20_" x1="471.631" x2="645.21" y1="895.567" y2="1125.915" gradientUnits="userSpaceOnUse"><stop style="stop-color:#43e97b" id="stop185" offset="0"/><stop style="stop-color:#38f9d7" id="stop187" offset="1"/></linearGradient><path id="path190" d="m 563.91,1014.22 c -1.66,0.95 -3.29,1.98 -4.84,3.06 l -5.11,-7.37 c 1.76,-1.22 3.61,-2.39 5.49,-3.47 z" class="st21" style="fill:url(#SVGID_20_)"/></g><g id="g201"><linearGradient id="SVGID_21_" x1="501.145" x2="682.827" y1="860.433" y2="1101.534" gradientUnits="userSpaceOnUse"><stop style="stop-color:#43e97b" id="stop194" offset="0"/><stop style="stop-color:#38f9d7" id="stop196" offset="1"/></linearGradient><path id="path199" d="m 608.87,994.86 -0.2,8.96 c -0.73,-0.02 -1.48,-0.02 -2.27,-0.02 -1.2,0 -2.41,0.02 -3.59,0.07 l -0.31,-8.96 c 1.3,-0.04 2.64,-0.08 3.95,-0.07 0.79,-0.01 1.61,0 2.42,0.02 z" class="st22" style="fill:url(#SVGID_21_)"/></g><g id="g210"><linearGradient id="SVGID_22_" x1="487.075" x2="665.349" y1="876.881" y2="1113.457" gradientUnits="userSpaceOnUse"><stop style="stop-color:#43e97b" id="stop203" offset="0"/><stop style="stop-color:#38f9d7" id="stop205" offset="1"/></linearGradient><path id="path208" d="m 585.43,1006.03 c -1.9,0.42 -3.8,0.91 -5.62,1.45 l -2.54,-8.6 c 2.02,-0.6 4.12,-1.14 6.22,-1.61 z" class="st23" style="fill:url(#SVGID_22_)"/></g><g id="g219"><linearGradient id="SVGID_23_" x1="454.617" x2="643.13" y1="893.901" y2="1144.065" gradientUnits="userSpaceOnUse"><stop style="stop-color:#43e97b" id="stop212" offset="0"/><stop style="stop-color:#38f9d7" id="stop214" offset="1"/></linearGradient><path id="path217" d="m 554.52,1020.74 c -1.46,1.21 -2.88,2.51 -4.23,3.84 l -6.32,-6.36 c 1.53,-1.52 3.15,-3 4.81,-4.37 z" class="st24" style="fill:url(#SVGID_23_)"/></g><g id="g228"><linearGradient id="SVGID_24_" x1="437.637" x2="622.8" y1="911.904" y2="1157.623" gradientUnits="userSpaceOnUse"><stop style="stop-color:#43e97b" id="stop221" offset="0"/><stop style="stop-color:#38f9d7" id="stop223" offset="1"/></linearGradient><path id="path226" d="m 551.94,1055.5 c -0.81,1.71 -3.03,5.67 -3.73,7.48 l -6.91,-5.41 c 0.78,-2.02 1.64,-4.01 2.54,-5.92 z" class="st25" style="fill:url(#SVGID_24_)"/></g><g id="g237"><linearGradient id="SVGID_25_" x1="446.271" x2="630.816" y1="905.088" y2="1149.988" gradientUnits="userSpaceOnUse"><stop style="stop-color:#43e97b" id="stop230" offset="0"/><stop style="stop-color:#38f9d7" id="stop232" offset="1"/></linearGradient><path id="path235" d="m 557.68,1045.56 c -1.08,1.55 -2.11,3.18 -3.07,4.84 l -7.77,-4.48 c 1.08,-1.88 2.25,-3.72 3.47,-5.48 z" class="st26" style="fill:url(#SVGID_25_)"/></g><g id="g246"><linearGradient id="SVGID_26_" x1="470.877" x2="645.743" y1="895.739" y2="1127.794" gradientUnits="userSpaceOnUse"><stop style="stop-color:#43e97b" id="stop239" offset="0"/><stop style="stop-color:#38f9d7" id="stop241" offset="1"/></linearGradient><path id="path244" d="m 573.71,1029.39 c -1.56,1.11 -3.09,2.29 -4.53,3.51 l -5.79,-6.85 c 1.64,-1.39 5.47,-4.21 7.24,-5.47 z" class="st27" style="fill:url(#SVGID_26_)"/></g><g id="g255"><linearGradient id="SVGID_27_" x1="453.517" x2="640.884" y1="895.235" y2="1143.879" gradientUnits="userSpaceOnUse"><stop style="stop-color:#43e97b" id="stop248" offset="0"/><stop style="stop-color:#38f9d7" id="stop250" offset="1"/></linearGradient><path id="path253" d="m 564.98,1036.78 c -1.33,1.34 -2.63,2.77 -3.84,4.23 l -6.9,-5.73 c 1.38,-1.66 2.85,-3.28 4.37,-4.81 z" class="st28" style="fill:url(#SVGID_27_)"/></g></g><g id="g266"><linearGradient id="SVGID_28_" x1="470.849" x2="651.456" y1="888.45" y2="1128.124" gradientUnits="userSpaceOnUse"><stop style="stop-color:#43e97b" id="stop259" offset="0"/><stop style="stop-color:#38f9d7" id="stop261" offset="1"/></linearGradient><path id="path264" d="m 572.26,966.1 c -31.39,0 -56.93,25.53 -56.93,56.93 0,31.39 25.54,56.93 56.93,56.93 31.39,0 56.93,-25.54 56.93,-56.93 0,-31.4 -25.54,-56.93 -56.93,-56.93 z m 5.59,107.02 c -1.33,0.15 -2.67,0.24 -4.03,0.28 -0.52,0.02 -1.04,0.03 -1.56,0.03 -16.15,0 -30.56,-7.64 -39.78,-19.5 -2.08,-2.66 -3.89,-5.54 -5.4,-8.59 -3.34,-6.73 -5.22,-14.31 -5.22,-22.31 0,-21.48 13.5,-39.87 32.46,-47.11 1.34,-0.51 2.7,-0.97 4.09,-1.37 4.4,-1.26 9.05,-1.93 13.85,-1.93 18.09,0 33.98,9.57 42.87,23.92 1.6,2.56 2.96,5.28 4.08,8.12 2.23,5.7 3.46,11.89 3.46,18.37 0,25.9 -19.64,47.3 -44.82,50.09 z" class="st29" style="fill:url(#SVGID_28_)"/></g></g></g></svg>