<?xml version="1.0" encoding="UTF-8" standalone="no"?>
<svg
   xmlns:dc="http://purl.org/dc/elements/1.1/"
   xmlns:cc="http://creativecommons.org/ns#"
   xmlns:rdf="http://www.w3.org/1999/02/22-rdf-syntax-ns#"
   xmlns:svg="http://www.w3.org/2000/svg"
   xmlns="http://www.w3.org/2000/svg"
   id="svg26"
   version="1.1"
   height="1024"
   width="1024">
  <metadata
     id="metadata32">
    <rdf:RDF>
      <cc:Work
         rdf:about="">
        <dc:format>image/svg+xml</dc:format>
        <dc:type
           rdf:resource="http://purl.org/dc/dcmitype/StillImage" />
      </cc:Work>
    </rdf:RDF>
  </metadata>
  <defs
     id="defs30" />
  <style
     id="style2"><![CDATA[  #icon * { fill: #1F9700 !important; } ]]></style>
  <g
     id="g7">
    <title
       id="title4">background</title>
    <rect
       x="-1"
       y="-1"
       width="582"
       height="402"
       id="canvas_background"
       fill="none" />
  </g>
  <g
     id="g24">
    <title
       id="title9">Layer 1</title>
    <g
       id="icon">
      <path
         id="path4"
         d="m674.773333,251.493333l-6.13333333,-25.9733333c-26.24,6.21333333 -52.5066667,13.9466667 -78,23.0133333l8.90666667,25.12c24.613333,-8.72 49.893333,-16.16 75.226666,-22.16l6.6e-7,0z" />
      <path
         id="path6"
         d="m372.426667,402.08c20.56,-16.5333333 41.9466667,-32.16 63.6,-46.4533333l-4.08,-6.18666667l12.5066667,-15.0933333c-19.28,-15.9733333 -39.3866667,-31.5466667 -59.7066667,-46.2666667l-15.6266667,21.6c13.8933333,10.08 27.3333333,20.9066667 40.8,31.6266667c-18.4266667,12.5866667 -36.64,25.8666667 -54.2133333,40l16.72,20.773333l0,2.7e-7z" />
      <path
         id="path8"
         d="m550.933333,292.933333l-10.72,-24.4266667c-24.6133333,10.8 -49.0666667,23.0666667 -72.6933333,36.5333333l13.1733333,23.1733333c22.853334,-12.986665 46.453334,-24.853332 70.24,-35.279999l0,-9e-7z" />
      <path
         id="path10"
         d="m332.453333,436.24l-17.92,-19.76c-19.68,17.84 -39.12,37.0133333 -57.7866667,56.96l19.4666667,18.2133333c18.186667,-19.44 37.093334,-38.08 56.24,-55.413333l0,-3e-7z" />
      <path
         id="path12"
         d="m655.04,552.026667c-26.8266667,0.293333333 -54.1333333,2 -81.1733333,5.12l3.01333333,26.48c18.56,-2.13333333 37.2,-3.33333333 55.7333333,-4.10666667c11.8933333,17.3333333 23.6,35.0133333 34.48,53.1466667l22.8533333,-13.7333333c-11.0133333,-18.32 -22.8533333,-36.16 -34.8266667,-53.68l-0.079999,-13.226667l-9.3e-7,2.7e-7z" />
      <path
         id="path14"
         d="m324.773333,653.84c24.24,-10.72 48.96,-20.4533333 73.44,-28.9333333l-8.74666667,-25.2c-25.1466667,8.72 -50.56,18.7466667 -75.4666667,29.7333333l10.773334,24.4l-6.3e-7,0z" />
      <path
         id="path16"
         d="m441.12,583.52l7.22666667,25.68c25.4666667,-7.17333333 51.28,-13.1733333 76.6933333,-17.8133333l-4.8,-26.2133333c-26.213333,4.773333 -52.853333,10.933333 -79.12,18.346666l3e-8,6e-7z" />
      <path
         id="path18"
         d="m790.186667,562.853333c-26.6133333,-4.58666667 -53.84,-7.78666667 -80.88,-9.44l-1.62666667,26.6133333c26.08,1.6 52.2933333,4.66666667 77.9733333,9.09333333l4.533334,-26.266666l-6.3e-7,-6.3e-7z" />
      <path
         id="path20"
         d="m619.066667,515.013333c-15.3066667,-19.8933333 -31.52,-39.4933333 -48.08,-58.24l-20,17.6533333c16.1866667,18.32 32,37.44 46.9866667,56.8533333l21.093333,-16.266666l3e-7,-6e-7z" />
      <path
         id="path22"
         d="m748.426667,730.426667c-10.4,-22.96 -21.68,-45.7333333 -33.52,-67.68l-23.4933333,12.6666667c11.5733333,21.4133333 22.5866667,43.6266667 32.7466667,66.0533333l24.266666,-11.04l6e-7,0z" />
      <path
         id="path24"
         d="m536.8,419.813333c-17.36,-17.9466667 -35.6266667,-35.6 -54.2933333,-52.5066667l-17.92,19.76c18.2666667,16.5066667 36.1066667,33.76 53.04,51.28l19.173333,-18.533333l3e-7,-3e-7z" />
      <path
         id="path26"
         d="m885.333333,512c0,-206.186667 -167.146667,-373.333333 -373.333333,-373.333333s-373.333333,167.146667 -373.333333,373.333333s167.146667,373.333333 373.333333,373.333333s373.333333,-167.146666 373.333333,-373.333333zm-620.16,140.64c-18.4533333,9.36 -36.6933333,19.4933333 -54.6133333,29.9466667c-18.1333333,-31.92 -31.4133333,-66.88 -38.6666667,-104.053333l20.88,14.9866667c15.3866667,-21.4666667 31.7066667,-42.48 48.5066667,-62.4533333l-20.4266667,-17.1733333c-17.04,20.24 -33.5733333,41.5466667 -49.2,63.3066667c-4,-21.120002 -6.32,-42.880002 -6.32,-65.200002c0,-103.013333 45.4133333,-195.413333 116.986667,-258.96c15.4933333,9.12 31.0133333,18.5866667 46.2933333,28.6666667l14.6933333,-22.2666667c-12.88,-8.48 -25.8933333,-16.5333333 -38.96,-24.3733333c57.9733333,-43.5733333 129.733333,-69.7333333 207.653333,-69.7333333c80.6933333,0 154.853333,27.9466667 213.813333,74.3466667l0.266666667,1.68c0.56,-0.08 1.12,-0.133333333 1.68,-0.213333333c79.653334,63.546666 130.906668,161.253333 130.906668,270.853333c0,22.08 -2.29333333,43.6 -6.26666667,64.5333333c-3.04,-0.8 -6.08,-1.76 -9.12,-2.53333333l-6.4,25.8933333c3.12,0.773333333 6.24,1.78666667 9.38666667,2.58666667c-39.946667,147.36 -174.453334,256.186667 -334.266667,256.186667c-119.6,0 -225.253333,-60.88 -287.573333,-153.28c17.3333333,-10.1066667 34.9333333,-19.92 52.7733333,-28.96l-12.026667,-23.786667l-5.67e-7,0.000001793z" />
    </g>
  </g>
</svg>
